<?xml version="1.0" encoding="UTF-8" standalone="no"?>
<!-- Created with Inkscape (http://www.inkscape.org/) -->

<svg
   width="1024"
   height="1024"
   viewBox="0 0 270.93333 270.93333"
   version="1.1"
   id="svg5"
   inkscape:version="1.1 (c4e8f9e, 2021-05-24)"
   sodipodi:docname="Logo.svg"
   xmlns:inkscape="http://www.inkscape.org/namespaces/inkscape"
   xmlns:sodipodi="http://sodipodi.sourceforge.net/DTD/sodipodi-0.dtd"
   xmlns:xlink="http://www.w3.org/1999/xlink"
   xmlns="http://www.w3.org/2000/svg"
   xmlns:svg="http://www.w3.org/2000/svg">
  <sodipodi:namedview
     id="namedview7"
     pagecolor="#ffffff"
     bordercolor="#999999"
     borderopacity="1"
     inkscape:pageshadow="0"
     inkscape:pageopacity="0"
     inkscape:pagecheckerboard="0"
     inkscape:document-units="mm"
     showgrid="false"
     units="px"
     width="1024px"
     inkscape:zoom="0.67081229"
     inkscape:cx="166.21639"
     inkscape:cy="680.51824"
     inkscape:window-width="2048"
     inkscape:window-height="1227"
     inkscape:window-x="0"
     inkscape:window-y="25"
     inkscape:window-maximized="0"
     inkscape:current-layer="layer1" />
  <defs
     id="defs2">
    <linearGradient
       inkscape:collect="always"
       id="linearGradient1316">
      <stop
         style="stop-color:#460d7a;stop-opacity:1"
         offset="0"
         id="stop1312" />
      <stop
         style="stop-color:#91207e;stop-opacity:1"
         offset="0.5"
         id="stop1670" />
      <stop
         style="stop-color:#ea3984;stop-opacity:1"
         offset="1"
         id="stop1314" />
    </linearGradient>
    <linearGradient
       inkscape:collect="always"
       xlink:href="#linearGradient1316"
       id="linearGradient1318"
       x1="30.370518"
       y1="209.43825"
       x2="166.84064"
       y2="209.43825"
       gradientUnits="userSpaceOnUse"
       gradientTransform="matrix(2.0040919,0,0,2.0040919,-62.151807,-287.36028)" />
  </defs>
  <g
     inkscape:label="Layer 1"
     inkscape:groupmode="layer"
     id="layer1">
    <path
       style="fill:url(#linearGradient1318);fill-opacity:1;stroke-width:0.530249"
       d="m 156.43822,244.3579 c -1.73302,-2.98333 -5.51628,-9.48063 -8.40725,-14.43848 -2.89094,-4.95782 -7.33896,-12.59341 -9.88442,-16.96796 -5.47624,-9.41128 -13.90889,-23.82222 -14.01679,-23.95393 -0.0418,-0.0511 -8.18681,1.07714 -18.10009,2.50692 -9.913282,1.4298 -18.739988,2.64478 -19.614898,2.69995 -1.288008,0.0812 -4.920893,-2.19903 -19.088975,-11.98168 -9.624025,-6.64511 -17.55406,-12.12945 -17.622299,-12.18743 -0.06824,-0.0579 1.428144,-3.11161 3.325299,-6.78581 l 3.449373,-6.68038 -1.469428,-0.29382 C 54.200558,156.11375 45.788087,154.77299 36.314364,153.29596 26.840641,151.81892 18.924632,150.43972 18.723235,150.2311 18.521838,150.02247 16.646,144.3637 14.554704,137.65604 12.46341,130.94839 9.1229369,120.33015 7.1314349,114.05994 0.31292293,92.59203 -0.37947307,90.16249 0.13349693,89.50487 0.40453793,89.1574 5.5788829,82.191957 11.632042,74.026125 29.237938,50.275391 27.281599,52.544103 31.67429,50.783769 35.805934,49.128068 52.212809,42.720205 72.628291,34.788819 79.62758,32.069607 90.36513,27.886165 96.489508,25.492317 l 11.135232,-4.352466 5.3025,1.177263 c 2.91637,0.647482 13.89253,3.287673 24.39146,5.86708 18.32167,4.50133 29.99278,7.336058 67.52399,16.400418 9.43264,2.278131 17.33664,4.346354 17.56442,4.596044 0.22779,0.249709 10.05249,13.950584 21.83266,30.446384 l 21.41851,29.9924 2.8514,29.0267 c 1.67508,17.05198 2.65549,29.21734 2.3765,29.48881 -0.26118,0.25418 -7.86723,5.57675 -16.90231,11.82797 l -16.42743,11.36583 0.12706,4.18324 c 0.07,2.30078 0.27464,7.45997 0.45487,11.46489 0.26681,5.92804 0.19199,7.32708 -0.40258,7.52597 -0.85635,0.28644 -10.63213,3.95253 -32.1503,12.05691 l -15.51252,5.84249 -7.2882,-6.23222 c -4.00852,-3.42774 -7.79868,-6.68756 -8.42261,-7.24405 -0.91257,-0.81396 -0.10983,2.08018 4.10494,14.80044 2.88164,8.69673 5.24136,15.87188 5.24384,15.94479 0.002,0.0729 -5.42393,0.12766 -12.05868,0.12185 l -12.06317,-0.01 z m 14.03245,-4.4963 c 0.006,-0.21872 -2.41507,-7.82315 -5.38071,-16.89872 l -5.39207,-16.50103 -5.8871,-3.08356 c -3.23789,-1.69596 -7.93007,-4.18871 -10.42709,-5.53947 l -4.53998,-2.45591 5.60051,9.63607 c 3.08025,5.29984 8.94104,15.38882 13.02397,22.41996 l 7.42348,12.78386 2.7838,0.018 c 1.53111,0.01 2.78894,-0.16073 2.79519,-0.37944 z m 40.75862,-25.45922 17.70413,-6.69006 -0.33573,-5.06905 c -0.18457,-2.78797 -0.33697,-6.3974 -0.33847,-8.02096 l -0.002,-2.95188 -12.80076,-8.44847 c -7.04041,-4.64665 -13.0951,-8.62253 -13.45485,-8.83528 -0.42056,-0.24871 -6.07354,4.73414 -15.83271,13.95583 -8.34824,7.88845 -15.17861,14.54161 -15.17861,14.78481 0,0.2432 4.71258,4.51708 10.47242,9.49753 6.75047,5.83702 10.7551,8.95092 11.26781,8.76147 0.43745,-0.16153 8.76223,-3.30441 18.49951,-6.98394 z m -32.94531,-31.41001 c 11.3138,-10.67247 14.74623,-14.19809 14.27321,-14.66075 -0.34254,-0.33503 -7.98509,-5.4336 -16.98344,-11.33016 -15.83205,-10.37462 -16.39053,-10.68902 -17.28567,-9.73073 -1.50019,1.60602 -24.416,34.03694 -24.416,34.55402 0,0.26005 6.14425,3.70392 13.65394,7.65302 13.58636,7.14469 14.9648,7.82307 15.55332,7.65457 0.16975,-0.0485 7.01186,-6.41159 15.20464,-14.13997 z m -73.75234,-0.8041 c 8.95312,-1.31715 16.38783,-2.50428 16.52158,-2.63801 0.13375,-0.13367 -0.39919,-5.67755 -1.18428,-12.31959 -2.262,-19.1367 -5.61608,-48.81754 -5.61608,-49.69757 0,-0.44175 -3.21029,-2.95175 -7.13399,-5.57783 l -7.133991,-4.77467 -3.153545,4.63274 c -12.726689,18.69623 -29.271654,44.11689 -31.906886,49.02363 -1.741446,3.24252 -3.166269,5.96047 -3.166269,6.03987 0,0.0794 4.951203,3.53621 11.002673,7.68175 6.051471,4.14552 11.71851,8.09429 12.593421,8.77504 0.874912,0.68075 1.885101,1.24037 2.244859,1.2436 0.359763,0.004 7.979392,-1.07179 16.932508,-2.38896 z m 145.34406,-10.74883 11.80961,-8.1673 -0.29304,-2.46819 c -0.54599,-4.59883 -3.97209,-38.40287 -3.97209,-39.19118 0,-0.43066 -3.99676,3.02283 -8.88167,7.67443 -4.88492,4.65157 -10.38729,9.86917 -12.22749,11.59463 l -3.34579,3.1372 1.64434,16.96799 c 1.86495,19.24447 1.90994,19.54889 2.80925,19.00859 0.35599,-0.21388 5.9616,-4.06416 12.45688,-8.55617 z m -24.02055,-4.08943 c -0.67782,-6.70765 -1.30961,-12.84146 -1.40396,-13.63067 -0.16073,-1.34338 -0.67903,-0.95034 -8.12533,6.16058 l -7.95374,7.59551 9.27936,6.09963 c 5.10366,3.35477 9.31462,6.0706 9.35773,6.03514 0.0431,-0.0355 -0.47623,-5.55253 -1.15406,-12.26019 z m -86.66238,-9.54449 c 4.75511,-6.70765 9.3645,-13.21406 10.24311,-14.4587 0.96533,-1.36745 1.40186,-2.44559 1.10315,-2.72448 -1.23398,-1.15205 -25.82688,-17.04895 -26.04214,-16.83369 -0.13327,0.13327 0.96771,10.46633 2.44665,22.96234 1.47894,12.49602 2.68843,23.066 2.68777,23.48888 -0.002,1.06932 -0.12506,1.22987 9.56146,-12.43435 z m 83.68021,-17.63937 c 0.17957,-0.76651 -2.42388,-30.62726 -2.85398,-32.73432 -0.18879,-0.92447 -2.01381,-1.47202 -14.22843,-4.26867 l -14.01193,-3.20815 -13.33415,18.73513 c -7.33377,10.30432 -13.44515,19.02566 -13.58083,19.38077 -0.14349,0.37555 2.25078,2.25306 5.72341,4.48814 3.28356,2.1134 11.33516,7.38522 17.89245,11.7152 l 11.92234,7.87268 11.1435,-10.5974 c 6.12893,-5.82856 11.22636,-10.95108 11.32762,-11.38338 z m -177.6352,-0.0485 C 23.46073,117.25938 15.884012,109.3837 15.775198,109.4925 c -0.130747,0.13067 3.970581,13.61315 7.796781,25.63051 2.174408,6.82938 2.275781,7.01937 3.904121,7.31678 3.865084,0.7059 20.860747,3.30807 22.003675,3.36894 1.01478,0.0541 0.236064,-0.9907 -4.241995,-5.69108 z m 32.264022,-16.24808 c 7.563294,-11.37386 13.911911,-20.94939 14.108033,-21.279 C 91.832616,102.21618 85.253795,97.5744 74.078496,90.22105 64.240134,83.747413 50.821787,74.899247 44.259953,70.558464 37.698117,66.217661 32.161952,62.716693 31.95736,62.778499 31.598515,62.886921 29.826662,65.221227 16.9322,82.573216 l -5.957406,8.016824 19.88763,20.88176 c 10.938198,11.48497 22.657081,23.79847 26.04196,27.36335 3.384877,3.56486 6.309946,6.3089 6.500146,6.09785 0.190209,-0.21103 6.533975,-9.68958 14.097272,-21.06343 z m 85.297528,0.68364 c 3.17073,-4.45892 8.71473,-12.245 12.32001,-17.30239 3.60528,-5.05738 6.41955,-9.33075 6.25395,-9.49635 -0.16554,-0.16554 -6.80507,-1.795 -14.75434,-3.62087 -7.94929,-1.82587 -21.2537,-4.89131 -29.56539,-6.81207 -8.31165,-1.920761 -15.67008,-3.61999 -16.35208,-3.776049 -1.11585,-0.255341 -1.21145,-0.135477 -0.95487,1.196302 0.15682,0.814043 0.92345,7.087467 1.70362,13.940947 0.78018,6.85347 1.44848,12.48812 1.48512,12.52144 0.0836,0.076 18.62068,12.26577 27.04987,17.78764 3.46694,2.27116 6.47128,4.02568 6.67634,3.89896 0.20505,-0.12666 2.96705,-3.87864 6.13777,-8.33756 z m 83.00301,-5.49953 5.61527,-5.34611 -10.82589,-2.52276 c -5.95424,-1.38749 -10.89096,-2.44162 -10.9705,-2.34248 -0.11062,0.13788 2.06949,22.14955 2.29834,23.20548 0.0268,0.12345 1.89791,-1.5468 4.15809,-3.71174 2.26019,-2.16494 6.6363,-6.34201 9.72469,-9.28239 z M 111.85427,97.87578 c -0.4306,-3.47111 -0.78291,-6.55246 -0.78291,-6.84744 0,-0.29496 -1.31622,1.35469 -2.92494,3.66588 -1.60871,2.31122 -2.86143,4.37061 -2.78381,4.57641 0.14089,0.37352 6.9269,5.09526 7.15447,4.9781 0.0661,-0.0341 -0.23222,-2.90182 -0.66281,-6.37295 z m 137.83896,5.51714 c -0.48365,-0.78255 -23.08428,-32.438547 -23.50632,-32.92456 -0.17977,-0.206942 0.27406,6.089534 1.00836,13.992149 l 1.33507,14.368421 7.68424,1.73486 c 6.10511,1.37833 11.0063,2.5868 13.68086,3.37325 0.0902,0.0264 -0.001,-0.21835 -0.20221,-0.54412 z M 217.55641,81.847294 c -0.81126,-8.092924 -1.5393,-14.963212 -1.6179,-15.267293 -0.0786,-0.304081 -4.22273,5.213405 -9.20919,12.261095 l -9.06631,12.813984 10.1268,2.40409 c 5.56975,1.32226 10.37763,2.42625 10.68419,2.45333 0.36549,0.0323 0.0495,-5.01685 -0.91759,-14.665206 z m -114.17366,3.195324 c 3.20801,-4.864513 5.79267,-9.213933 5.74369,-9.665415 -2.08614,-19.229582 -4.52466,-40.865069 -4.70224,-41.719895 -0.22441,-1.080265 -0.69928,-0.948636 -10.71287,2.969163 -22.440563,8.779798 -40.965098,15.997876 -46.74867,18.215584 l -6.046408,2.318474 13.735022,9.063706 c 7.55426,4.985038 20.058244,13.237989 27.786628,18.339866 7.728384,5.101879 14.290217,9.286699 14.581855,9.299629 0.291637,0.012 3.154983,-3.9566 6.362993,-8.821112 z m 89.85316,-3.327875 c 2.80942,-3.937099 8.10776,-11.355726 11.77406,-16.48584 l 6.66599,-9.327485 -10.40103,-2.506999 C 174.42104,46.921763 145.37657,39.848181 130.2929,36.107231 120.02348,33.56025 113.72261,32.225826 113.72261,32.597845 c 0,2.420482 4.77931,40.317732 5.12643,40.64977 0.24265,0.232094 4.85551,1.412785 10.2508,2.623737 5.39528,1.210953 18.40394,4.203843 28.9081,6.65086 10.50417,2.447016 21.12241,4.919388 23.5961,5.494158 2.47369,0.57475 4.95352,1.00267 5.51071,0.95088 0.64348,-0.0597 2.8768,-2.705904 6.12116,-7.252507 z"
       id="path1224" />
  </g>
</svg>
